<svg id="Layer_1" data-name="Layer 1" xmlns="http://www.w3.org/2000/svg" viewBox="0 0 708.14 212.52"><defs><style>.cls-1,.cls-2,.cls-3{fill:#fff;}.cls-1,.cls-2,.cls-6{stroke:#f16f24;}.cls-1,.cls-2,.cls-3,.cls-6{stroke-miterlimit:10;}.cls-1,.cls-6{stroke-width:8px;}.cls-2,.cls-3{stroke-width:9px;}.cls-3{stroke:#8c8683;}.cls-4{fill:#8c8683;}.cls-5{fill:#f16f24;}.cls-6{fill:none;}</style></defs><rect class="cls-1" x="4" y="4.04" width="204.48" height="204.48"/><ellipse class="cls-2" cx="71.68" cy="127.7" rx="50.58" ry="42.49"/><ellipse class="cls-3" cx="140.8" cy="128.97" rx="50.58" ry="42.49"/><path class="cls-4" d="M256.62,350.26h-8.89V238.78h8.89V350.26Z" transform="translate(-60.87 -216.19)"/><path class="cls-4" d="M255.47,348.8" transform="translate(-60.87 -216.19)"/><path class="cls-5" d="M236.67,417.8v-3h2.8v3Z" transform="translate(-60.87 -216.19)"/><path class="cls-5" d="M249.35,414.58c0-1.55,0-3.54.08-4.72h-.08c-.41,2.12-1.08,5.06-1.8,7.95h-2.33c-.57-2.8-1.22-5.74-1.6-7.95h-.09c.08,1.17.14,3.1.14,4.8v3.15h-2.59v-9.9h4.18c.49,2,1.06,4.91,1.28,6.37h.05c.25-1.59.91-4.22,1.49-6.37h4.06v9.9h-2.79Z" transform="translate(-60.87 -216.19)"/><path class="cls-5" d="M261.48,413.8H257v1.86h5l-.32,2.15h-7.5v-9.9h7.49v2.15H257v1.59h4.51Z" transform="translate(-60.87 -216.19)"/><path class="cls-5" d="M365.53,294.74c-2.2,12.52-11.39,20.82-27.83,20.82-19.63,0-29.11-13.25-29.11-30.64,0-17,9.37-31.51,30-31.51,17.61,0,25.62,10.24,26.8,20.61H347.93c-.8-4.33-3.3-8.27-9.79-8.27-8.53,0-11.44,8.1-11.44,18.56,0,9.5,2.42,18.88,11.64,18.88,7,0,8.93-5.07,9.68-8.45Z" transform="translate(-60.87 -216.19)"/><path class="cls-5" d="M432.9,284.43c0,16.95-10.21,31.13-30.73,31.13-20.16,0-29.9-14.09-29.9-31,0-17.25,10.69-31.11,30.8-31.11C422,253.41,432.9,266.51,432.9,284.43Zm-42.52-.18c0,11,3.65,18.66,12.34,18.66,9.13,0,12.14-8.12,12.14-18.33,0-10.94-3.2-18.52-12.37-18.52C394,266.06,390.38,273.1,390.38,284.25Z" transform="translate(-60.87 -216.19)"/><path class="cls-5" d="M459.62,254.52v36.84c0,8.59,4.23,11.53,9.55,11.53,5.76,0,9.11-3.52,9.11-11.53V254.52h17.64V289.6c0,19.91-11.78,26-27.05,26-15.82,0-26.83-6.41-26.83-25.88V254.52Z" transform="translate(-60.87 -216.19)"/><path class="cls-5" d="M524.77,291.8v22.65h-17V254.52h29.69c14.11,0,20.94,7.56,20.94,16.6,0,8.27-4.84,12.5-9,14.21,3.77,1.32,7.81,5.32,7.81,15.46v2.5c0,3.72.12,8.56.78,11.16H541.21c-1-2.58-1.27-6.93-1.27-13.09v-1.55c0-5.17-1.24-8-9-8Zm0-12.23h8.12c5.85,0,8-2.43,8-6.46s-2.53-6.35-7.9-6.35h-8.2Z" transform="translate(-60.87 -216.19)"/><path class="cls-5" d="M581.86,296.3c1,5.22,4.66,7.42,10.33,7.42,5.31,0,7.76-1.86,7.76-5.34,0-3.94-2.66-5.43-12.12-7.69-17.68-4.28-21.2-10.74-21.2-18.8,0-10.06,7.39-18.48,24.06-18.48,17.34,0,24.42,8.8,25.26,18.25H599c-.46-3.22-2.11-6.49-8.34-6.49-4,0-6.49,1.52-6.49,4.76s2.2,4.51,11.44,6.77c18.46,4.61,22.13,11.26,22.13,19.79,0,11.25-8.68,19.07-26.27,19.07-16.58,0-25.36-7.74-26.68-19.26Z" transform="translate(-60.87 -216.19)"/><path class="cls-5" d="M670.06,290.2h-27.3v11.23h30.47l-2,13h-45.4V254.52h45.35v13H642.76v9.64h27.3Z" transform="translate(-60.87 -216.19)"/><path class="cls-4" d="M311.65,323.39h27.52c20.39,0,32.21,12.9,32.21,31.32s-11.52,32.74-32.5,32.74H311.65Zm18.79,50.46h7.19c10.19,0,14.37-7.14,14.37-19.14,0-10.6-3.9-17.72-14.14-17.72h-7.42Z" transform="translate(-60.87 -216.19)"/><path class="cls-4" d="M429,361.52H399.84v12h32.57l-2.1,13.91H381.78V323.39h48.47V337.3H399.84v10.32H429Z" transform="translate(-60.87 -216.19)"/><path class="cls-4" d="M478.9,387.45l-10.77-20.86h-.19l-11,20.86h-20l19.94-31.92-19.51-32.14h21.7l10,19.78h.26l10.3-19.78h19.72l-19.48,30.22,20.67,33.84Z" transform="translate(-60.87 -216.19)"/><path class="cls-5" d="M507.71,387.41V368h18.07v19.41Z" transform="translate(-60.87 -216.19)"/><path class="cls-5" d="M590.37,366.32c0-10.11.22-23.15.5-30.84h-.5c-2.71,13.89-7.07,33.11-11.8,52H563.38c-3.72-18.29-8-37.55-10.49-52h-.57c.53,7.62.88,20.25.88,31.34v20.62H536.32V322.71h27.3c3.19,13.1,6.93,32.09,8.38,41.66h.32c1.67-10.41,6-27.59,9.75-41.66H608.6v64.74H590.37Z" transform="translate(-60.87 -216.19)"/><path class="cls-5" d="M669.69,361.25H640.21v12.14h32.91L671,387.45H622V322.71h49v14.06H640.21v10.42h29.48Z" transform="translate(-60.87 -216.19)"/><rect class="cls-6" x="215.94" y="4.04" width="426.64" height="204.48"/><path class="cls-5" d="M769,216.19v28.65c0,13.88-6.84,20-14.89,20-6.12,0-10.48-3.23-12.37-7.84-1.52,4.31-5.54,9.42-13,9.42-9.39,0-17.07-7.05-17.07-21.41V216.19Zm-46,16.37v8.63c0,5.54,2.4,7.9,6.49,7.9,3.6,0,6.15-2.23,6.15-7.59v-8.94ZM746.93,242c0,4.64,2.38,6.52,5.48,6.52,3.55,0,5.3-2.59,5.3-6.65v-9.29H746.93Z" transform="translate(-60.87 -216.19)"/><path class="cls-5" d="M734.91,317.18V291H724.17v29.27l-12.44-1.88V274.71H769v43.58H756.57V291h-9.22v26.23Z" transform="translate(-60.87 -216.19)"/><path class="cls-5" d="M756.57,341V324.58H769v49.67H756.57V357.93H711.73V341Z" transform="translate(-60.87 -216.19)"/><path class="cls-5" d="M722.87,389.42l-11.14-3.33V369.65L769,387.85v21.84L711.73,428.6V411l11.14-3.5Zm12.44,15.11c9-2.7,17-4.92,22.59-6.22v-.23c-6.17-1.34-14.35-3.54-22.59-5.87Z" transform="translate(-60.87 -216.19)"/></svg>